PathFileType	4	(X/Y/Z)	TVC_26_Cal_03_0_static_RCNL2025.trc
DataRate	CameraRate	NumFrames	NumMarkers	Units	OrigDataRate	OrigDataStartFrame	OrigNumFrames
100	100	11	27	mm	100	158	420
Frame#	Time	R_Shoulder			L_Shoulder			C7			J_Notch			R_Elbow			L_Elbow			R_Wrist			L_Wrist			R_Asis			L_Asis			R_Psis			L_Psis			Sacral			Thoracic			Sternum			R_Thigh_Lateral			R_Knee_Lateral			R_Shank_Lateral			R_Ankle_Lateral			R_Heel			R_Toe			L_Thigh_Lateral			L_Knee_Lateral			L_Shank_Lateral			L_Ankle_Lateral			L_Heel			L_Toe		
		X1	Y1	Z1	X2	Y2	Z2	X3	Y3	Z3	X4	Y4	Z4	X5	Y5	Z5	X6	Y6	Z6	X7	Y7	Z7	X8	Y8	Z8	X9	Y9	Z9	X10	Y10	Z10	X11	Y11	Z11	X12	Y12	Z12	X13	Y13	Z13	X14	Y14	Z14	X15	Y15	Z15	X16	Y16	Z16	X17	Y17	Z17	X18	Y18	Z18	X19	Y19	Z19	X20	Y20	Z20	X21	Y21	Z21	X22	Y22	Z22	X23	Y23	Z23	X24	Y24	Z24	X25	Y25	Z25	X26	Y26	Z26	X27	Y27	Z27
158	1.57000000	-184.496887	1354.795532	-116.236656	-111.781799	1385.020386	-429.690216	-225.275192	1416.855225	-282.596924	-89.597855	1309.491089	-251.792938	-199.798981	1027.605957	17.041189	-113.298264	1052.431030	-520.209656	-182.352776	815.882690	45.380209	-105.183273	830.097717	-504.167419	-152.324524	951.615723	-120.989365	-57.332993	958.122925	-391.942047	-319.131897	973.207642	-245.359970	-275.750977	966.568054	-386.485291	-297.441437	969.887848	-315.922630	-293.254852	1140.501465	-320.850861	-40.315193	1076.441895	-261.264191	-227.555344	578.734375	-83.410545	-242.239563	433.707214	-132.428986	-259.437469	282.119202	-82.379036	-269.365204	75.427475	-135.581268	-313.481659	54.017052	-184.389191	-129.228897	40.050087	-149.904343	-90.221794	585.443481	-451.571655	-184.304337	416.819885	-419.860748	-164.275513	268.890503	-457.598022	-195.767090	67.396095	-389.581818	-251.273972	50.602440	-347.800171	-60.017818	39.863258	-350.725616
159	1.58000000	-184.712280	1354.754395	-116.227524	-111.997154	1385.176514	-429.654663	-225.543289	1416.874878	-282.623749	-89.737267	1309.493896	-251.788101	-199.925644	1027.596069	16.925104	-113.440948	1052.519531	-520.236023	-182.555557	815.791840	45.187711	-105.182930	830.161652	-504.268066	-152.444748	951.575745	-120.988342	-57.358002	958.158997	-391.950226	-319.286255	973.165100	-245.365875	-275.804626	966.622192	-386.601074	-297.545441	969.893646	-315.983475	-293.398804	1140.476807	-320.880219	-40.404938	1076.569458	-261.322998	-227.474014	578.750122	-83.470512	-242.234497	433.810791	-132.406113	-259.407288	282.171814	-82.357086	-269.372864	75.363441	-135.583481	-313.387756	53.958988	-184.591019	-129.166595	39.979733	-149.794571	-89.958160	586.097046	-451.676178	-184.257706	416.846893	-419.839172	-164.220901	269.017487	-457.684357	-195.781281	67.304871	-389.603516	-251.227921	50.543423	-347.766449	-60.062683	39.858723	-350.743225
160	1.59000000	-184.991074	1354.715088	-116.256889	-112.211739	1385.256470	-429.680939	-225.821182	1416.816895	-282.586334	-90.018517	1309.507812	-251.788239	-200.042343	1027.502197	16.752308	-113.596634	1052.570068	-520.344788	-182.716057	815.660645	44.936575	-105.325317	830.077759	-504.329285	-152.625732	951.544312	-121.046219	-57.468990	958.229736	-391.941986	-319.473877	973.149902	-245.493698	-275.914734	966.559021	-386.603485	-297.694305	969.854462	-316.048592	-293.605316	1140.503662	-320.973053	-40.664326	1076.609741	-261.363525	-227.403824	578.653076	-83.542641	-242.254578	433.813507	-132.408981	-259.570496	282.104034	-82.418953	-269.397858	75.376366	-135.564926	-313.467957	54.049965	-184.349060	-129.233276	39.979488	-149.855865	-90.108887	585.491821	-451.407349	-184.240768	416.847076	-419.824493	-164.249893	268.983215	-457.554749	-195.662415	67.549644	-389.665100	-251.245255	50.562859	-347.842316	-60.020996	39.807144	-350.720612
161	1.60000000	-185.240631	1354.688110	-116.214966	-112.453438	1385.334229	-429.649872	-226.054184	1416.789795	-282.504181	-90.348740	1309.552002	-251.818527	-200.107742	1027.450073	16.727795	-113.690140	1052.650513	-520.418030	-182.855301	815.527832	44.696072	-105.283997	830.155243	-504.428757	-152.712051	951.483643	-121.039795	-57.504513	958.236145	-391.887024	-319.559113	973.103882	-245.549759	-276.000183	966.473206	-386.659882	-297.779648	969.788544	-316.104820	-293.807495	1140.410400	-321.081268	-40.808575	1076.632568	-261.447632	-227.395981	578.715576	-83.527946	-242.513107	433.880035	-132.543625	-259.650452	282.119995	-82.325165	-269.395996	75.462807	-135.544144	-313.504059	54.083015	-184.294830	-129.177383	40.026291	-149.791809	-89.862564	586.071045	-451.522095	-184.312332	416.787842	-419.923553	-164.205475	268.878998	-457.506775	-195.791870	67.401047	-389.637573	-251.263168	50.618874	-347.827576	-59.997955	39.876770	-350.759552
162	1.61000000	-185.435898	1354.646240	-116.267624	-112.709908	1385.411987	-429.691711	-226.272507	1416.795532	-282.612732	-90.491524	1309.568481	-251.886887	-200.154694	1027.345703	16.527847	-113.751251	1052.669312	-520.508362	-183.051231	815.115265	44.492488	-105.311108	830.253021	-504.564148	-152.961380	951.329529	-121.096794	-57.559448	958.335815	-392.040680	-319.651245	973.043396	-245.637970	-276.105255	966.462219	-386.748138	-297.878250	969.752808	-316.193054	-293.928009	1140.418091	-321.253937	-40.804668	1076.652100	-261.434631	-227.376480	578.563293	-83.561760	-242.555328	433.792175	-132.501846	-259.731720	282.171143	-82.339737	-269.444763	75.463478	-135.629105	-313.501984	54.080399	-184.305313	-129.191513	39.984127	-149.901306	-90.082169	585.500061	-451.404572	-184.312073	416.743286	-420.008392	-164.206772	268.829193	-457.378601	-195.587860	67.651978	-389.910309	-251.251480	50.581268	-347.838287	-59.991341	39.885860	-350.787140
163	1.62000000	-185.760635	1354.579468	-116.304298	-112.894356	1385.447266	-429.711578	-226.467972	1416.763916	-282.575012	-90.788895	1309.527832	-251.890594	-200.185043	1027.069946	16.415297	-113.892143	1052.754517	-520.554932	-183.185532	814.912018	44.342832	-105.207298	830.269348	-504.525284	-153.010178	951.421875	-121.178787	-57.654362	958.290527	-391.930878	-319.795624	973.005249	-245.759262	-276.160767	966.379700	-386.796448	-297.978195	969.692474	-316.277855	-294.068695	1140.437744	-321.291931	-40.945984	1076.673828	-261.431885	-227.373062	578.515259	-83.677483	-242.749725	433.817688	-132.573257	-259.918793	282.117310	-82.325928	-269.442749	75.448547	-135.648392	-313.578888	54.151718	-184.433228	-129.172928	40.022217	-149.906006	-89.904030	585.989746	-451.515778	-184.257202	416.708832	-419.980194	-164.217484	268.925323	-457.383148	-195.585434	67.770103	-389.725739	-251.267151	50.620815	-347.803131	-59.897659	39.818283	-350.713379
164	1.63000000	-185.977890	1354.563843	-116.351852	-113.033310	1385.553223	-429.695068	-226.732468	1416.887695	-282.535309	-90.911964	1309.565796	-251.954895	-200.376923	1027.270264	16.143194	-113.990112	1052.780151	-520.664368	-183.171417	815.142609	44.046665	-105.165802	830.158173	-504.524384	-153.000854	951.439087	-121.208672	-57.774208	958.275513	-391.966583	-319.928467	973.000427	-245.819244	-276.278259	966.409424	-386.947235	-298.103363	969.704926	-316.383240	-294.268463	1140.440918	-321.407440	-41.085335	1076.679077	-261.466797	-227.409424	578.490662	-83.675873	-242.925995	433.773743	-132.599869	-260.093811	282.074127	-82.402519	-269.443573	75.452568	-135.640091	-313.603821	54.472458	-184.410522	-129.164917	40.017475	-149.893188	-89.848915	585.911682	-451.431976	-184.294662	416.704590	-420.033508	-164.972061	268.750031	-456.673431	-195.655045	67.727386	-389.695007	-251.230103	50.662956	-347.865845	-59.953190	39.752026	-350.666656
165	1.64000000	-186.233780	1354.486206	-116.417709	-113.224319	1385.581787	-429.717224	-226.882996	1416.736450	-282.559326	-91.191643	1309.587158	-251.982620	-200.518890	1027.129272	15.968837	-113.992645	1052.849243	-520.725647	-183.298370	815.148712	43.854629	-105.131592	830.423309	-504.680618	-153.455948	951.140930	-121.504501	-57.804928	958.300720	-392.000702	-320.040405	972.957703	-245.988556	-276.374359	966.355164	-387.059174	-298.207382	969.656433	-316.523865	-294.391113	1140.319092	-321.551270	-41.189423	1076.743530	-261.544128	-227.551727	578.462036	-83.685478	-243.065887	433.819550	-132.661575	-260.111115	282.007843	-82.342293	-269.453888	75.428421	-135.640198	-313.607758	54.264732	-184.402802	-129.200119	40.012577	-149.886780	-89.795280	585.879700	-451.417053	-184.308212	416.704132	-420.034149	-164.556442	268.728607	-457.184052	-195.768387	66.920837	-389.386475	-251.215729	50.618607	-347.899200	-60.023792	39.793015	-350.664154
166	1.65000000	-186.367142	1354.389771	-116.622879	-113.317986	1385.627319	-429.763550	-226.972229	1416.814453	-282.604645	-91.341064	1309.562378	-251.995209	-200.653748	1026.985352	15.754069	-114.006973	1052.865723	-520.854553	-183.344711	815.095642	43.624014	-105.100761	830.181122	-504.642273	-153.599518	951.152527	-121.667435	-57.901794	958.241821	-392.123993	-320.394257	973.059082	-245.628876	-276.473969	966.394775	-387.118652	-298.434113	969.726929	-316.373764	-294.442352	1140.312622	-321.665833	-41.292271	1076.750244	-261.631500	-227.765594	578.459106	-83.690254	-243.121979	433.838226	-132.710312	-260.224731	282.034210	-82.501205	-269.509827	75.421631	-135.608871	-313.415649	54.037716	-184.701813	-129.161514	40.030128	-149.912369	-89.668228	585.889404	-451.417053	-184.318512	416.700348	-420.028778	-164.237320	268.888184	-457.483887	-195.788223	66.985878	-389.176941	-251.276169	50.677010	-347.906281	-60.022034	39.824566	-350.769806
167	1.66000000	-186.681107	1354.462036	-116.482536	-113.474808	1385.634277	-429.799805	-227.171326	1416.845093	-282.626251	-91.528404	1309.588867	-251.961578	-200.775940	1026.937256	15.621211	-114.090996	1052.956787	-520.909485	-183.415840	814.945343	43.454702	-105.248737	830.498840	-505.048889	-153.352859	951.396790	-121.459694	-58.027111	958.227417	-392.150665	-320.263458	972.958008	-246.084488	-276.474609	966.322144	-387.237946	-298.369034	969.640076	-316.661217	-294.474457	1140.275635	-321.763733	-41.308311	1076.793945	-261.675354	-227.955109	578.485535	-83.807373	-243.253937	433.731018	-132.684601	-260.149017	282.025513	-82.475960	-269.451965	75.413139	-135.650879	-313.366058	54.256824	-184.762741	-129.177032	40.049225	-149.892181	-89.880798	585.287231	-451.350006	-184.353912	416.680084	-420.065277	-164.043732	269.054932	-457.849304	-195.770325	67.368378	-389.643768	-251.268417	50.717464	-347.925110	-60.065540	39.802860	-350.710693
168	1.67000000	-186.833664	1354.449951	-116.629791	-113.531380	1385.696167	-429.808136	-227.340881	1416.756592	-282.641144	-91.623871	1309.642334	-252.067184	-200.883392	1026.855469	15.420439	-114.083496	1053.024780	-521.049927	-183.499733	814.902863	43.237960	-105.602356	830.570007	-505.350433	-153.550262	951.216431	-121.691780	-57.926441	958.372498	-392.273132	-320.322357	972.947815	-246.314667	-276.511963	966.303345	-387.281006	-298.417160	969.625580	-316.797836	-294.591736	1140.239014	-321.832123	-41.463482	1076.877808	-261.657135	-228.213470	578.536316	-83.776970	-243.247025	433.686829	-132.668243	-260.164795	281.997131	-82.488792	-269.428070	75.404396	-135.662842	-313.397888	54.103729	-184.739395	-129.197403	40.073349	-149.906143	-90.021416	585.249939	-451.411743	-184.402786	416.703979	-420.121552	-164.098602	269.060425	-457.788727	-195.633499	67.681290	-389.804688	-251.262634	50.721817	-347.924988	-60.049564	39.857113	-350.764526
